<mxfile host="app.diagrams.net" agent="Mozilla/5.0 (Windows NT 10.0; Win64; x64) AppleWebKit/537.36 (KHTML, like Gecko) Chrome/109.0.0.0 Safari/537.36" version="24.7.16">
  <diagram name="Page-1" id="d6Fp1K2athQnm-d3pZVk">
    <mxGraphModel dx="548" dy="341" grid="1" gridSize="10" guides="1" tooltips="1" connect="1" arrows="1" fold="1" page="1" pageScale="1" pageWidth="850" pageHeight="1100" math="0" shadow="0">
      <root>
        <mxCell id="0" />
        <mxCell id="1" parent="0" />
        <mxCell id="ubh9f7wKWHpqhO78miLS-34" value="" style="edgeStyle=orthogonalEdgeStyle;rounded=0;orthogonalLoop=1;jettySize=auto;html=1;" edge="1" parent="1">
          <mxGeometry relative="1" as="geometry">
            <mxPoint x="288" y="190" as="sourcePoint" />
            <mxPoint x="288" y="240" as="targetPoint" />
            <Array as="points">
              <mxPoint x="288" y="180" />
              <mxPoint x="288" y="180" />
            </Array>
          </mxGeometry>
        </mxCell>
        <mxCell id="ubh9f7wKWHpqhO78miLS-32" value="" style="edgeStyle=orthogonalEdgeStyle;rounded=0;orthogonalLoop=1;jettySize=auto;html=1;" edge="1" parent="1">
          <mxGeometry relative="1" as="geometry">
            <mxPoint x="290" y="476" as="sourcePoint" />
            <mxPoint x="290" y="531" as="targetPoint" />
          </mxGeometry>
        </mxCell>
        <mxCell id="ubh9f7wKWHpqhO78miLS-31" value="" style="edgeStyle=orthogonalEdgeStyle;rounded=0;orthogonalLoop=1;jettySize=auto;html=1;" edge="1" parent="1" source="ubh9f7wKWHpqhO78miLS-9" target="ubh9f7wKWHpqhO78miLS-18">
          <mxGeometry relative="1" as="geometry" />
        </mxCell>
        <mxCell id="ubh9f7wKWHpqhO78miLS-30" value="" style="edgeStyle=orthogonalEdgeStyle;rounded=0;orthogonalLoop=1;jettySize=auto;html=1;" edge="1" parent="1">
          <mxGeometry relative="1" as="geometry">
            <mxPoint x="290" y="283" as="sourcePoint" />
            <mxPoint x="290" y="340" as="targetPoint" />
            <Array as="points">
              <mxPoint x="290" y="273" />
              <mxPoint x="290" y="273" />
            </Array>
          </mxGeometry>
        </mxCell>
        <mxCell id="ubh9f7wKWHpqhO78miLS-25" value="" style="edgeStyle=orthogonalEdgeStyle;rounded=0;orthogonalLoop=1;jettySize=auto;html=1;" edge="1" parent="1" source="ubh9f7wKWHpqhO78miLS-2" target="ubh9f7wKWHpqhO78miLS-4">
          <mxGeometry relative="1" as="geometry" />
        </mxCell>
        <mxCell id="ubh9f7wKWHpqhO78miLS-3" value="" style="rounded=0;whiteSpace=wrap;html=1;fillColor=#CCFFFF;strokeColor=#CCE5FF;" vertex="1" parent="1">
          <mxGeometry x="230" y="140" width="120" height="60" as="geometry" />
        </mxCell>
        <mxCell id="ubh9f7wKWHpqhO78miLS-4" value="&lt;font face=&quot;Helvetica&quot; style=&quot;font-size: 10px;&quot;&gt;&lt;i&gt;Dinyatakan&amp;nbsp; AECD&lt;/i&gt;&lt;/font&gt;" style="text;strokeColor=none;align=center;fillColor=none;html=1;verticalAlign=middle;whiteSpace=wrap;rounded=0;" vertex="1" parent="1">
          <mxGeometry x="233" y="140" width="110" height="60" as="geometry" />
        </mxCell>
        <mxCell id="ubh9f7wKWHpqhO78miLS-5" value="" style="group" vertex="1" connectable="0" parent="1">
          <mxGeometry x="238" y="40" width="100" height="60" as="geometry" />
        </mxCell>
        <mxCell id="ubh9f7wKWHpqhO78miLS-1" value="" style="ellipse;whiteSpace=wrap;html=1;fillColor=#009900;" vertex="1" parent="ubh9f7wKWHpqhO78miLS-5">
          <mxGeometry width="100" height="60" as="geometry" />
        </mxCell>
        <mxCell id="ubh9f7wKWHpqhO78miLS-2" value="&lt;h3&gt;&lt;font face=&quot;Tahoma&quot; color=&quot;#ffffff&quot; style=&quot;font-size: 17px;&quot;&gt;START&lt;/font&gt;&lt;/h3&gt;" style="text;strokeColor=none;align=center;fillColor=none;html=1;verticalAlign=middle;whiteSpace=wrap;rounded=0;" vertex="1" parent="ubh9f7wKWHpqhO78miLS-5">
          <mxGeometry x="20" y="15" width="60" height="30" as="geometry" />
        </mxCell>
        <mxCell id="ubh9f7wKWHpqhO78miLS-11" value="" style="group" vertex="1" connectable="0" parent="1">
          <mxGeometry x="195" y="240" width="190" height="60" as="geometry" />
        </mxCell>
        <mxCell id="ubh9f7wKWHpqhO78miLS-6" value="" style="shape=parallelogram;perimeter=parallelogramPerimeter;whiteSpace=wrap;html=1;fixedSize=1;fillColor=#CCFFFF;strokeColor=#CCE5FF;" vertex="1" parent="ubh9f7wKWHpqhO78miLS-11">
          <mxGeometry width="190" height="60" as="geometry" />
        </mxCell>
        <mxCell id="ubh9f7wKWHpqhO78miLS-7" value="&lt;font style=&quot;font-size: 10px;&quot;&gt;&lt;i&gt;Inputkan&lt;/i&gt;&lt;/font&gt;&lt;div style=&quot;font-size: 10px;&quot;&gt;&lt;font style=&quot;font-size: 10px;&quot;&gt;&lt;i&gt;angka ke dalam A=2, E=8, C=3, D=5&lt;/i&gt;&lt;/font&gt;&lt;/div&gt;" style="text;strokeColor=none;align=center;fillColor=none;html=1;verticalAlign=middle;whiteSpace=wrap;rounded=0;" vertex="1" parent="ubh9f7wKWHpqhO78miLS-11">
          <mxGeometry y="10" width="180" height="40" as="geometry" />
        </mxCell>
        <mxCell id="ubh9f7wKWHpqhO78miLS-16" value="" style="group" vertex="1" connectable="0" parent="1">
          <mxGeometry x="240" y="360" width="100" height="50" as="geometry" />
        </mxCell>
        <mxCell id="ubh9f7wKWHpqhO78miLS-8" value="" style="rounded=0;whiteSpace=wrap;html=1;fillColor=#CCFFFF;strokeColor=#CCFFFF;" vertex="1" parent="ubh9f7wKWHpqhO78miLS-16">
          <mxGeometry y="-20" width="100" height="50" as="geometry" />
        </mxCell>
        <mxCell id="ubh9f7wKWHpqhO78miLS-9" value="&lt;font style=&quot;font-size: 10px;&quot;&gt;&lt;i&gt;Lalu&lt;/i&gt;&lt;/font&gt;&lt;div style=&quot;font-size: 10px;&quot;&gt;&lt;font style=&quot;font-size: 10px;&quot;&gt;&lt;i&gt;hitung (2:(8x3))-5&lt;/i&gt;&lt;/font&gt;&lt;/div&gt;" style="text;strokeColor=none;align=center;fillColor=none;html=1;verticalAlign=middle;whiteSpace=wrap;rounded=0;" vertex="1" parent="ubh9f7wKWHpqhO78miLS-16">
          <mxGeometry x="7" y="-8" width="86.26" height="27" as="geometry" />
        </mxCell>
        <mxCell id="ubh9f7wKWHpqhO78miLS-19" value="" style="group" vertex="1" connectable="0" parent="1">
          <mxGeometry x="230" y="430" width="120" height="60" as="geometry" />
        </mxCell>
        <mxCell id="ubh9f7wKWHpqhO78miLS-17" value="" style="shape=parallelogram;perimeter=parallelogramPerimeter;whiteSpace=wrap;html=1;fixedSize=1;fillColor=#CCFFFF;strokeColor=#CCE5FF;" vertex="1" parent="ubh9f7wKWHpqhO78miLS-19">
          <mxGeometry width="120" height="60" as="geometry" />
        </mxCell>
        <mxCell id="ubh9f7wKWHpqhO78miLS-18" value="&lt;i style=&quot;font-size: 10px;&quot;&gt;Lalu&lt;/i&gt;&lt;div style=&quot;font-size: 10px;&quot;&gt;&lt;i style=&quot;font-size: 10px;&quot;&gt;tampilkan hasil= 7&lt;/i&gt;&lt;/div&gt;" style="text;strokeColor=none;align=center;fillColor=none;html=1;verticalAlign=middle;whiteSpace=wrap;rounded=0;fontSize=10;" vertex="1" parent="ubh9f7wKWHpqhO78miLS-19">
          <mxGeometry width="120" height="60" as="geometry" />
        </mxCell>
        <mxCell id="ubh9f7wKWHpqhO78miLS-21" value="" style="group" vertex="1" connectable="0" parent="1">
          <mxGeometry x="240" y="530" width="100" height="60" as="geometry" />
        </mxCell>
        <mxCell id="ubh9f7wKWHpqhO78miLS-22" value="" style="ellipse;whiteSpace=wrap;html=1;fillColor=#FF0000;" vertex="1" parent="ubh9f7wKWHpqhO78miLS-21">
          <mxGeometry width="100" height="60" as="geometry" />
        </mxCell>
        <mxCell id="ubh9f7wKWHpqhO78miLS-23" value="&lt;h3&gt;&lt;font face=&quot;Tahoma&quot; color=&quot;#ffffff&quot; style=&quot;font-size: 17px;&quot;&gt;STOP&lt;/font&gt;&lt;/h3&gt;" style="text;strokeColor=none;align=center;fillColor=none;html=1;verticalAlign=middle;whiteSpace=wrap;rounded=0;" vertex="1" parent="ubh9f7wKWHpqhO78miLS-21">
          <mxGeometry x="20" y="15" width="60" height="30" as="geometry" />
        </mxCell>
      </root>
    </mxGraphModel>
  </diagram>
</mxfile>
